<?xml version="1.0" encoding="UTF-8"?>
<svg version="1.1" xmlns="http://www.w3.org/2000/svg" width="174" height="180">
<path d="M0 0 C2.72557421 1.37819827 5.15358599 3.08790182 7.625 4.875 C8.92836492 5.79094739 10.23301499 6.7050693 11.5390625 7.6171875 C12.10834473 8.02565918 12.67762695 8.43413086 13.26416016 8.85498047 C15.11150738 10.07355409 17.0042233 11.04773096 19 12 C19 12.66 19 13.32 19 14 C19.99 14 20.98 14 22 14 C22 14.66 22 15.32 22 16 C22.99 16 23.98 16 25 16 C25 16.66 25 17.32 25 18 C25.72445312 18.268125 26.44890625 18.53625 27.1953125 18.8125 C29.98324639 19.99290655 32.33664215 21.35520737 34.875 23 C36.29232422 23.91652344 36.29232422 23.91652344 37.73828125 24.8515625 C42.1892342 27.78332791 46.62613034 30.73597679 51.04833984 33.7109375 C54.43445427 36.00582602 54.43445427 36.00582602 58 38 C58 38.66 58 39.32 58 40 C58.99 40 59.98 40 61 40 C61 40.66 61 41.32 61 42 C61.99 42 62.98 42 64 42 C64 42.66 64 43.32 64 44 C64.57353494 44.11661578 65.14706987 44.23323156 65.73798466 44.35338116 C69.95619731 45.55919782 73.15753438 47.6535641 76 51 C77.14329979 54.82508782 77.02423834 58.4977753 76.92407227 62.46557617 C76.92684677 63.61255478 76.92962128 64.75953339 76.93247986 65.94126892 C76.93200548 69.72637854 76.87467308 73.50834362 76.81640625 77.29296875 C76.80401921 79.92278197 76.79502772 82.5526132 76.78929138 85.18244934 C76.77184621 90.68968759 76.72553191 96.19603212 76.65844727 101.70288086 C76.56386361 109.46976382 76.52049175 117.23630572 76.48781502 125.00366247 C76.438763 135.97684687 76.36538092 146.95002038 76.24047852 157.92260742 C76.23150543 159.00578247 76.22253235 160.08895752 76.21328735 161.20495605 C76.20035141 162.19327927 76.18741547 163.18160248 76.17408752 164.19987488 C76.16461877 165.05948916 76.15515001 165.91910345 76.14539433 166.80476665 C76 169 76 169 75 172 C71.73459166 173.08846945 69.35713966 173.12581429 65.92015076 173.12698364 C64.64837982 173.12980347 63.37660889 173.13262329 62.06629944 173.13552856 C60.65414415 173.13358421 59.24198899 173.13153604 57.82983398 173.12939453 C56.34497027 173.13074932 54.86010688 173.13252968 53.37524414 173.13470459 C49.34028386 173.13926934 45.3053491 173.13749339 41.27038836 173.1343255 C37.05257774 173.13179745 32.83476933 173.13414065 28.61695862 173.13571167 C21.53443 173.13753186 14.4519118 173.13513079 7.36938477 173.13037109 C-0.82685574 173.12492666 -9.02307139 173.12669305 -17.2193113 173.1321975 C-24.24949563 173.13673041 -31.27967246 173.13737836 -38.30985779 173.13475883 C-42.51179311 173.13319731 -46.71371674 173.13299893 -50.91565132 173.13629532 C-54.86446171 173.13917668 -58.81323992 173.13719344 -62.76204681 173.13140106 C-64.21412286 173.13007498 -65.66620161 173.13046502 -67.1182766 173.13266373 C-69.09456157 173.13538108 -71.07085244 173.13137528 -73.0471344 173.12698364 C-74.15492028 173.12660662 -75.26270617 173.12622959 -76.40406132 173.12584114 C-79 173 -79 173 -81 172 C-81.9799516 169.0601452 -82.12348067 167.1831582 -82.12025452 164.12153625 C-82.12162918 163.11612793 -82.12300385 162.1107196 -82.12442017 161.07484436 C-82.12082489 159.9728923 -82.11722961 158.87094025 -82.11352539 157.7355957 C-82.11367142 156.57448273 -82.11381744 155.41336975 -82.1139679 154.21707153 C-82.11326989 150.36995593 -82.10548266 146.52288842 -82.09765625 142.67578125 C-82.09579167 140.01205869 -82.09431878 137.34833882 -82.09336853 134.68461609 C-82.09025943 128.38420709 -82.0820517 122.08381543 -82.07201904 115.78341407 C-82.06084485 108.61056923 -82.05534416 101.43772357 -82.05032361 94.26487219 C-82.03986875 79.50990593 -82.02227743 64.75495327 -82 50 C-81.34 50 -80.68 50 -80 50 C-80 49.34 -80 48.68 -80 48 C-79.44820068 47.70794678 -78.89640137 47.41589355 -78.32788086 47.11499023 C-72.77686548 44.1135657 -67.66000158 40.77315525 -62.5625 37.0625 C-47.24211373 26.08070458 -47.24211373 26.08070458 -41 24 C-41 23.34 -41 22.68 -41 22 C-40.20275513 21.58258545 -40.20275513 21.58258545 -39.3894043 21.15673828 C-33.19428799 17.82519313 -27.51814945 13.97823011 -21.8125 9.875 C-6.60799621 -1.04862408 -6.60799621 -1.04862408 0 0 Z " fill="#F8F8F8" transform="translate(91,4)"/>
<path d="M0 0 C32.34 0 64.68 0 98 0 C98 22.11 98 44.22 98 67 C83.81 67 69.62 67 55 67 C55 68.32 55 69.64 55 71 C59.95 71 64.9 71 70 71 C70 73.31 70 75.62 70 78 C56.14 78 42.28 78 28 78 C28 75.69 28 73.38 28 71 C32.95 71 37.9 71 43 71 C43 69.68 43 68.36 43 67 C28.81 67 14.62 67 0 67 C0 44.89 0 22.78 0 0 Z " fill="#F6F6F6" transform="translate(39,67)"/>
<path d="M0 0 C2.72557421 1.37819827 5.15358599 3.08790182 7.625 4.875 C8.92836492 5.79094739 10.23301499 6.7050693 11.5390625 7.6171875 C12.10834473 8.02565918 12.67762695 8.43413086 13.26416016 8.85498047 C15.11150738 10.07355409 17.0042233 11.04773096 19 12 C19 12.66 19 13.32 19 14 C19.99 14 20.98 14 22 14 C22 14.66 22 15.32 22 16 C22.99 16 23.98 16 25 16 C25 16.66 25 17.32 25 18 C25.72445312 18.268125 26.44890625 18.53625 27.1953125 18.8125 C29.98324639 19.99290655 32.33664215 21.35520737 34.875 23 C36.29232422 23.91652344 36.29232422 23.91652344 37.73828125 24.8515625 C42.1892342 27.78332791 46.62613034 30.73597679 51.04833984 33.7109375 C54.43445427 36.00582602 54.43445427 36.00582602 58 38 C58 38.66 58 39.32 58 40 C58.99 40 59.98 40 61 40 C61 40.66 61 41.32 61 42 C61.99 42 62.98 42 64 42 C64 42.66 64 43.32 64 44 C64.57353494 44.11661578 65.14706987 44.23323156 65.73798466 44.35338116 C69.95619731 45.55919782 73.15753438 47.6535641 76 51 C77.14329979 54.82508782 77.02423834 58.4977753 76.92407227 62.46557617 C76.92684677 63.61255478 76.92962128 64.75953339 76.93247986 65.94126892 C76.93200548 69.72637854 76.87467308 73.50834362 76.81640625 77.29296875 C76.80401921 79.92278197 76.79502772 82.5526132 76.78929138 85.18244934 C76.77184621 90.68968759 76.72553191 96.19603212 76.65844727 101.70288086 C76.56386361 109.46976382 76.52049175 117.23630572 76.48781502 125.00366247 C76.438763 135.97684687 76.36538092 146.95002038 76.24047852 157.92260742 C76.23150543 159.00578247 76.22253235 160.08895752 76.21328735 161.20495605 C76.20035141 162.19327927 76.18741547 163.18160248 76.17408752 164.19987488 C76.16461877 165.05948916 76.15515001 165.91910345 76.14539433 166.80476665 C76 169 76 169 75 172 C71.73459166 173.08846945 69.35713966 173.12581429 65.92015076 173.12698364 C64.64837982 173.12980347 63.37660889 173.13262329 62.06629944 173.13552856 C60.65414415 173.13358421 59.24198899 173.13153604 57.82983398 173.12939453 C56.34497027 173.13074932 54.86010688 173.13252968 53.37524414 173.13470459 C49.34028386 173.13926934 45.3053491 173.13749339 41.27038836 173.1343255 C37.05257774 173.13179745 32.83476933 173.13414065 28.61695862 173.13571167 C21.53443 173.13753186 14.4519118 173.13513079 7.36938477 173.13037109 C-0.82685574 173.12492666 -9.02307139 173.12669305 -17.2193113 173.1321975 C-24.24949563 173.13673041 -31.27967246 173.13737836 -38.30985779 173.13475883 C-42.51179311 173.13319731 -46.71371674 173.13299893 -50.91565132 173.13629532 C-54.86446171 173.13917668 -58.81323992 173.13719344 -62.76204681 173.13140106 C-64.21412286 173.13007498 -65.66620161 173.13046502 -67.1182766 173.13266373 C-69.09456157 173.13538108 -71.07085244 173.13137528 -73.0471344 173.12698364 C-74.15492028 173.12660662 -75.26270617 173.12622959 -76.40406132 173.12584114 C-79 173 -79 173 -81 172 C-81.9799516 169.0601452 -82.12348067 167.1831582 -82.12025452 164.12153625 C-82.12162918 163.11612793 -82.12300385 162.1107196 -82.12442017 161.07484436 C-82.12082489 159.9728923 -82.11722961 158.87094025 -82.11352539 157.7355957 C-82.11367142 156.57448273 -82.11381744 155.41336975 -82.1139679 154.21707153 C-82.11326989 150.36995593 -82.10548266 146.52288842 -82.09765625 142.67578125 C-82.09579167 140.01205869 -82.09431878 137.34833882 -82.09336853 134.68461609 C-82.09025943 128.38420709 -82.0820517 122.08381543 -82.07201904 115.78341407 C-82.06084485 108.61056923 -82.05534416 101.43772357 -82.05032361 94.26487219 C-82.03986875 79.50990593 -82.02227743 64.75495327 -82 50 C-81.34 50 -80.68 50 -80 50 C-80 49.34 -80 48.68 -80 48 C-79.44820068 47.70794678 -78.89640137 47.41589355 -78.32788086 47.11499023 C-72.77686548 44.1135657 -67.66000158 40.77315525 -62.5625 37.0625 C-47.24211373 26.08070458 -47.24211373 26.08070458 -41 24 C-41 23.34 -41 22.68 -41 22 C-40.20275513 21.58258545 -40.20275513 21.58258545 -39.3894043 21.15673828 C-33.19428799 17.82519313 -27.51814945 13.97823011 -21.8125 9.875 C-6.60799621 -1.04862408 -6.60799621 -1.04862408 0 0 Z M-11.3515625 15.80859375 C-13 17 -13 17 -16 18 C-16 18.66 -16 19.32 -16 20 C-16.53625 20.0825 -17.0725 20.165 -17.625 20.25 C-20.87340691 21.27581271 -23.28751859 22.96563894 -26 25 C-26 25.66 -26 26.32 -26 27 C-26.81791016 27.13535156 -26.81791016 27.13535156 -27.65234375 27.2734375 C-30.71679727 28.22183743 -32.9226882 29.80419772 -35.5625 31.625 C-50.23940678 41.61970339 -50.23940678 41.61970339 -55 44 C-55 44.66 -55 45.32 -55 46 C-55.87021286 46.27610107 -56.74042572 46.55220215 -57.63700867 46.83666992 C-63.68608793 48.92917482 -68.14639931 50.66314137 -72 56 C-74.08151725 63.77145175 -73.27673506 72.22732127 -73.07421875 80.1875 C-73.05803241 82.30400414 -73.04681856 84.42055233 -73.04064941 86.53710938 C-72.98312906 94.35874727 -72.82955277 102.17944063 -72.6875 110 C-72.460625 127.49 -72.23375 144.98 -72 163 C-26.79 163 18.42 163 65 163 C65.28875 145.55125 65.5775 128.1025 65.875 110.125 C66.00245605 104.6298877 66.12991211 99.13477539 66.26123047 93.47314453 C66.30807258 88.51701369 66.30807258 88.51701369 66.33621216 83.5607605 C66.35761453 81.36496183 66.40666257 79.16932089 66.47805786 76.97457886 C67.35455394 65.0103846 67.35455394 65.0103846 63.63685608 54.03859329 C59.93238291 50.34577402 55.71749023 48.16267689 51 46 C49.3848795 45.09612837 47.77372065 44.18500647 46.171875 43.2578125 C45.47513672 42.89075195 44.77839844 42.52369141 44.06054688 42.14550781 C40.2519231 40.0282018 36.77337052 37.42992148 33.25 34.875 C25.79766486 29.42571976 25.79766486 29.42571976 17.75 24.9375 C16 24 16 24 15 22 C13.65523362 21.17755704 12.27335035 20.4151162 10.875 19.6875 C7.79167462 18.0430598 5.0103917 16.32771559 2.25 14.1875 C-0.72286003 11.91854278 -0.72286003 11.91854278 -3.5 11.375 C-6.71182662 12.17795666 -8.77952179 13.76609083 -11.3515625 15.80859375 Z " fill="#010101" transform="translate(91,4)"/>
<path d="M0 0 C32.34 0 64.68 0 98 0 C98 22.11 98 44.22 98 67 C83.81 67 69.62 67 55 67 C55 68.32 55 69.64 55 71 C59.95 71 64.9 71 70 71 C70 73.31 70 75.62 70 78 C56.14 78 42.28 78 28 78 C28 75.69 28 73.38 28 71 C32.95 71 37.9 71 43 71 C43 69.68 43 68.36 43 67 C28.81 67 14.62 67 0 67 C0 44.89 0 22.78 0 0 Z M8 6 C8 24.48 8 42.96 8 62 C35.06 62 62.12 62 90 62 C90 43.52 90 25.04 90 6 C62.94 6 35.88 6 8 6 Z " fill="#111111" transform="translate(39,67)"/>
<path d="M0 0 C2.64 0 5.28 0 8 0 C8 1.32 8 2.64 8 4 C8.90363281 4.03738281 9.80726562 4.07476562 10.73828125 4.11328125 C12.50751953 4.21189453 12.50751953 4.21189453 14.3125 4.3125 C16.07013672 4.39951172 16.07013672 4.39951172 17.86328125 4.48828125 C21 5 21 5 22.91015625 6.3671875 C24.57165606 8.85645961 24.11538118 11.05777999 24 14 C24.29714023 16.00569659 24.62061383 18.00822259 25 20 C26.32 20 27.64 20 29 20 C29 22.64 29 25.28 29 28 C27.68 28 26.36 28 25 28 C24.855625 28.5775 24.71125 29.155 24.5625 29.75 C24.20707404 31.17170385 23.83426648 32.58927472 23.4375 34 C22.85753541 36.31005128 22.85753541 36.31005128 23 40 C21.625 41.75 21.625 41.75 20 43 C19.34 43 18.68 43 18 43 C18 42.34 18 41.68 18 41 C16.906875 41.495 15.81375 41.99 14.6875 42.5 C11 44 11 44 8 44 C8 45.32 8 46.64 8 48 C5.36 48 2.72 48 0 48 C0 46.68 0 45.36 0 44 C-0.7425 43.855625 -1.485 43.71125 -2.25 43.5625 C-3.86399693 43.23236426 -5.47313375 42.87096352 -7.0625 42.4375 C-9.31924716 41.85315942 -9.31924716 41.85315942 -13 42 C-14.8125 40.8125 -14.8125 40.8125 -16 39 C-15.70700977 37.32577014 -15.37309899 35.65821773 -15 34 C-15.66 33.01 -16.32 32.02 -17 31 C-17 30.01 -17 29.02 -17 28 C-18.65 27.67 -20.3 27.34 -22 27 C-22 24.69 -22 22.38 -22 20 C-20.35 20 -18.7 20 -17 20 C-16.37542727 16.56484998 -16 13.50935186 -16 10 C-15.08673041 7.41240284 -14.38337667 6.26836367 -12.125 4.6875 C-9.57136171 3.86132291 -8.5560431 4.32340036 -6 5 C-3.99053778 4.72949547 -1.98645776 4.40632091 0 4 C0 2.68 0 1.36 0 0 Z " fill="#101010" transform="translate(84,77)"/>
<path d="M0 0 C4.11001606 2.70887422 7.02629671 5.72694507 9.75 9.8125 C9.98046875 12.00390625 9.98046875 12.00390625 9.9375 14.375 C9.93105469 15.16003906 9.92460938 15.94507812 9.91796875 16.75390625 C9.75 18.8125 9.75 18.8125 8.75 20.8125 C7.1 20.1525 5.45 19.4925 3.75 18.8125 C3.73582031 18.13703125 3.72164062 17.4615625 3.70703125 16.765625 C3.47363429 11.08671127 3.47363429 11.08671127 0.6875 6.3125 C-2.95028787 4.4549062 -6.24847124 3.62637026 -10.25 2.8125 C-8.27 5.1225 -6.29 7.4325 -4.25 9.8125 C-6.03155733 13.37561466 -7.41763009 15.16895475 -10.25 17.8125 C-13.68595166 16.28541037 -16.36912454 14.21322955 -19.25 11.8125 C-17.69814886 17.68065698 -17.69814886 17.68065698 -14.625 22.8125 C-11.54009692 24.11140656 -8.62945834 24.17873341 -5.3125 24.4296875 C-3.25 24.8125 -3.25 24.8125 -1.1875 26.875 C-0.878125 27.514375 -0.56875 28.15375 -0.25 28.8125 C-4.20122481 30.78811241 -8.94340465 30.24498694 -13.25 29.8125 C-18.10978996 27.51514475 -20.84883576 24.61482849 -23.25 19.8125 C-23.75923487 14.46553383 -23.53569055 9.74959158 -21.25 4.8125 C-14.85441631 -1.40466612 -8.33657287 -3.04605547 0 0 Z " fill="#EAEAEA" transform="translate(95.25,86.1875)"/>
</svg>
