<?xml version="1.0" encoding="UTF-8"?>
<svg version="1.1" xmlns="http://www.w3.org/2000/svg" width="187" height="192">
<path d="M0 0 C1.65 0 3.3 0 5 0 C5 0.66 5 1.32 5 2 C5.99 2 6.98 2 8 2 C8 2.66 8 3.32 8 4 C8.99 4 9.98 4 11 4 C11 4.66 11 5.32 11 6 C11.99 6 12.98 6 14 6 C14 6.66 14 7.32 14 8 C14.99 8 15.98 8 17 8 C17 8.66 17 9.32 17 10 C17.598125 10.144375 18.19625 10.28875 18.8125 10.4375 C21.89029562 11.22893316 23.71542726 11.71542726 26 14 C28.70505814 16.28889535 30.61817117 17.87272372 34 19 C34 19.66 34 20.32 34 21 C34.99 21 35.98 21 37 21 C37 21.66 37 22.32 37 23 C37.99 23 38.98 23 40 23 C40 23.66 40 24.32 40 25 C40.99 25 41.98 25 43 25 C43 25.66 43 26.32 43 27 C43.52464844 27.0721875 44.04929687 27.144375 44.58984375 27.21875 C48.01405963 28.32870652 50.68066876 30.40589091 53.5625 32.5 C57.99948243 35.75343981 57.99948243 35.75343981 63 38 C63 38.66 63 39.32 63 40 C63.99 40 64.98 40 66 40 C66.66 40.66 67.32 41.32 68 42 C71.77823965 45.23849113 75.67485256 47.58789854 80 50 C81.61232443 51.61232443 81.12601188 53.34940867 81.12698364 55.57980347 C81.12980347 56.56971283 81.13262329 57.55962219 81.13552856 58.57952881 C81.13249222 60.22214691 81.13249222 60.22214691 81.12939453 61.89794922 C81.13202301 63.61732193 81.13202301 63.61732193 81.13470459 65.37142944 C81.13912663 69.18253061 81.13618349 72.99358582 81.1328125 76.8046875 C81.13348553 79.44166065 81.13445555 82.07863375 81.13571167 84.71560669 C81.13753346 90.2523041 81.13512735 95.7889882 81.13037109 101.32568359 C81.12493382 107.72913936 81.1266872 114.13256326 81.1321975 120.53601825 C81.1372812 126.68962647 81.13674425 132.84322055 81.13381577 138.99682999 C81.13314712 141.6179721 81.13397276 144.23911502 81.13629532 146.8602562 C81.13882657 150.52128013 81.13497423 154.1822424 81.12939453 157.84326172 C81.13141876 158.93429199 81.13344299 160.02532227 81.13552856 161.14941406 C81.13270874 162.14496307 81.12988892 163.14051208 81.12698364 164.16622925 C81.1264181 165.46539182 81.1264181 165.46539182 81.12584114 166.79080009 C81 169 81 169 80 172 C76.50418948 174.33054035 75.13368055 174.25111512 71.00280762 174.25396729 C69.74931015 174.25960693 68.49581268 174.26524658 67.20433044 174.27105713 C65.81265201 174.2671684 64.42097415 174.26307206 63.02929688 174.25878906 C61.56575852 174.26149869 60.10222153 174.26505947 58.63868713 174.26940918 C54.66148355 174.27853882 50.68438355 174.27498658 46.70717812 174.26865101 C42.54855695 174.26359399 38.38994475 174.26828163 34.23132324 174.27142334 C27.24713546 174.27506386 20.26298996 174.27026165 13.27880859 174.26074219 C5.19957768 174.24985747 -2.8795523 174.25338298 -10.95878077 174.264395 C-17.89047438 174.27346544 -24.82213757 174.27475434 -31.7538352 174.26951766 C-35.89601134 174.26639662 -40.03814001 174.26599228 -44.18031311 174.27259064 C-48.07417091 174.27835995 -51.96789833 174.27437487 -55.86174202 174.26280212 C-57.29243312 174.26015331 -58.72313516 174.2609244 -60.15382195 174.26532745 C-62.1034799 174.27077533 -64.05316178 174.262739 -66.00280762 174.25396729 C-67.09492302 174.25321323 -68.18703842 174.25245918 -69.31224823 174.25168228 C-72 174 -72 174 -75 172 C-75.96941429 169.09175712 -76.13433548 167.21369181 -76.15390015 164.18641663 C-76.16250061 163.19520309 -76.17110107 162.20398956 -76.17996216 161.18273926 C-76.18422211 160.09642212 -76.18848206 159.01010498 -76.19287109 157.89086914 C-76.20104858 156.74593491 -76.20922607 155.60100067 -76.21765137 154.42137146 C-76.24250105 150.62597175 -76.25901738 146.83060933 -76.2734375 143.03515625 C-76.27876118 141.74105772 -76.28408485 140.44695919 -76.28956985 139.11364555 C-76.31079456 133.6774318 -76.32992596 128.2412302 -76.34119225 122.804986 C-76.35744351 115.01514001 -76.39066104 107.22579178 -76.44759309 99.43613344 C-76.49093021 93.29746168 -76.5069336 87.1589856 -76.51332474 81.02017021 C-76.52005877 78.40819181 -76.53533606 75.79622126 -76.55921555 73.18434334 C-76.59068257 69.53534773 -76.59093129 65.88761992 -76.58349609 62.23852539 C-76.59990143 61.15423248 -76.61630676 60.06993958 -76.63320923 58.95278931 C-76.57198343 51.63649186 -76.57198343 51.63649186 -73.66275024 48.39915466 C-70.79392233 46.89171552 -67.91148149 45.42339095 -65 44 C-64.34 43.34 -63.68 42.68 -63 42 C-62.34 41.34 -61.68 40.68 -61 40 C-60.01 40 -59.02 40 -58 40 C-58 39.34 -58 38.68 -58 38 C-57.443125 37.70867188 -56.88625 37.41734375 -56.3125 37.1171875 C-51.41740964 34.48773018 -47.03198358 31.65369852 -42.7265625 28.13671875 C-41 27 -41 27 -38 27 C-38 26.34 -38 25.68 -38 25 C-37.01 25 -36.02 25 -35 25 C-35 24.34 -35 23.68 -35 23 C-34.01 23 -33.02 23 -32 23 C-32 22.34 -32 21.68 -32 21 C-31.01 21 -30.02 21 -29 21 C-29 20.34 -29 19.68 -29 19 C-28.05125 18.54625 -27.1025 18.0925 -26.125 17.625 C-22.99686321 16.19761746 -22.99686321 16.19761746 -21 14 C-15.47058824 10 -15.47058824 10 -12 10 C-12 9.34 -12 8.68 -12 8 C-11.01 8 -10.02 8 -9 8 C-9 7.34 -9 6.68 -9 6 C-8.01 6 -7.02 6 -6 6 C-6 5.34 -6 4.68 -6 4 C-5.01 4 -4.02 4 -3 4 C-3 3.34 -3 2.68 -3 2 C-2.01 2 -1.02 2 0 2 C0 1.34 0 0.68 0 0 Z M-2.66015625 15.4140625 C-3.3670459 15.92533691 -4.07393555 16.43661133 -4.80224609 16.96337891 C-5.54812988 17.51171387 -6.29401367 18.06004883 -7.0625 18.625 C-12.62086189 22.63760792 -18.16746567 26.49349072 -24.1171875 29.9140625 C-25.78506597 30.8760339 -27.3979612 31.93197413 -29 33 C-29 33.66 -29 34.32 -29 35 C-29.99 35 -30.98 35 -32 35 C-32 35.66 -32 36.32 -32 37 C-32.54398438 37.09023438 -33.08796875 37.18046875 -33.6484375 37.2734375 C-36.7269873 38.22461734 -38.96568429 39.80768399 -41.625 41.625 C-42.68332031 42.34429687 -43.74164063 43.06359375 -44.83203125 43.8046875 C-48.4252928 46.29471585 -52.00133813 48.80724487 -55.55078125 51.359375 C-58.59845377 53.40087813 -61.8150689 55.18003937 -65 57 C-65 91.65 -65 126.3 -65 162 C-20.45 162 24.1 162 70 162 C70.33 144.88125 70.66 127.7625 71 110.125 C71.21849609 102.03895264 71.21849609 102.03895264 71.44140625 93.78955078 C71.49494074 88.92657985 71.49494074 88.92657985 71.52709961 84.06344604 C71.55155715 81.90917989 71.60761082 79.75512357 71.68920898 77.6022644 C72.60595732 65.72536077 72.60595732 65.72536077 68.45492554 55.08516693 C64.68970432 51.85815172 60.53203232 49.82006459 55.98576355 47.91555405 C52.89732808 46.49160325 50.3886584 44.55943583 47.6875 42.5 C42.85235699 38.43674702 42.85235699 38.43674702 37 37 C37 36.34 37 35.68 37 35 C36.01 35 35.02 35 34 35 C33.505 33.515 33.505 33.515 33 32 C30.79594141 30.49833497 30.79594141 30.49833497 28 29.0625 C21.55321379 25.46285042 15.63957289 21.29419331 9.70117188 16.91235352 C9.00443359 16.40631592 8.30769531 15.90027832 7.58984375 15.37890625 C6.96972412 14.9207251 6.34960449 14.46254395 5.71069336 13.99047852 C2.23689098 11.97917321 0.25898022 13.27125653 -2.66015625 15.4140625 Z " fill="#000000" transform="translate(91,3)"/>
<path d="M0 0 C33 0 66 0 100 0 C100 22.44 100 44.88 100 68 C85.81 68 71.62 68 57 68 C57 68.66 57 69.32 57 70 C61.95 70 66.9 70 72 70 C72 73.3 72 76.6 72 80 C57.48 80 42.96 80 28 80 C28 76.7 28 73.4 28 70 C32.95 70 37.9 70 43 70 C43 69.34 43 68.68 43 68 C28.81 68 14.62 68 0 68 C0 45.56 0 23.12 0 0 Z M10 7 C10 24.82 10 42.64 10 61 C36.4 61 62.8 61 90 61 C90 43.18 90 25.36 90 7 C63.6 7 37.2 7 10 7 Z " fill="#000000" transform="translate(44,66)"/>
<path d="M0 0 C3.3 0 6.6 0 10 0 C10 1.65 10 3.3 10 5 C15.15721501 5.99022088 15.15721501 5.99022088 20.1875 5.25 C20.785625 5.1675 21.38375 5.085 22 5 C24.75 7.4375 24.75 7.4375 27 10 C26.608125 10.53625 26.21625 11.0725 25.8125 11.625 C24.67044335 14.14436481 24.67044335 14.14436481 26.1875 17.1875 C27.75646215 20.26667333 27.75646215 20.26667333 31 21 C31 23.97 31 26.94 31 30 C29.68 30 28.36 30 27 30 C26.34 32.31 25.68 34.62 25 37 C25.99 37.495 25.99 37.495 27 38 C27 41 27 41 24.8125 43.25 C22 45 22 45 19.4375 44.625 C18.633125 44.41875 17.82875 44.2125 17 44 C14.88316159 44.89163577 14.88316159 44.89163577 13 46 C12.01 46 11.02 46 10 46 C10 47.32 10 48.64 10 50 C6.7 50 3.4 50 0 50 C0 48.68 0 47.36 0 46 C-1.2375 45.835 -2.475 45.67 -3.75 45.5 C-4.44609375 45.4071875 -5.1421875 45.314375 -5.859375 45.21875 C-8.30458395 44.93222643 -8.30458395 44.93222643 -12 45 C-14.3125 43.3125 -14.3125 43.3125 -16 41 C-15.625 38.625 -15.625 38.625 -15 36 C-15.85771342 32.75763432 -15.85771342 32.75763432 -17 30 C-18.32 30 -19.64 30 -21 30 C-21 27.03 -21 24.06 -21 21 C-19.68 20.34 -18.36 19.68 -17 19 C-15.61672604 15.96997134 -14.85113328 13.94282253 -15.375 10.625 C-15.58125 10.08875 -15.7875 9.5525 -16 9 C-13.8125 6.9375 -13.8125 6.9375 -11 5 C-8.5 5.375 -8.5 5.375 -6 6 C-3.23690643 5.44525427 -3.23690643 5.44525427 -1 4 C-0.67 2.68 -0.34 1.36 0 0 Z M-8.9375 17.0625 C-10.758413 22.09678889 -11.3839385 27.94303363 -9.12109375 32.94140625 C-6.17848081 36.81633221 -2.54051128 38.56615433 2 40 C5.21061788 40.41890218 5.21061788 40.41890218 8 40 C8.66 39.34 9.32 38.68 10 38 C7.05987019 35.68889795 7.05987019 35.68889795 3.125 35.6875 C-0.09753274 35.32614982 -1.07603367 34.94710702 -3.875 33 C-6.59958282 29.15353013 -7.32750901 25.60706515 -8 21 C-4.942048 22.73559438 -2.36620011 24.38472619 0 27 C3.36720387 25.60667426 4.9859524 24.0210714 7 21 C6.195625 20.236875 5.39125 19.47375 4.5625 18.6875 C2 16 2 16 1 13 C9.79194631 14.27516779 9.79194631 14.27516779 13.5 16.5 C15.82901199 20.38168665 16.35630125 24.56186649 17 29 C17.66 29 18.32 29 19 29 C19.33 29.66 19.66 30.32 20 31 C21.21825496 25.31481019 21.24460931 21.85139031 18.28125 16.765625 C16.12133802 13.78916093 14.39024104 12.47937791 11 11 C2.81761996 9.81343129 -3.15528905 10.90724318 -8.9375 17.0625 Z " fill="#000000" transform="translate(89,75)"/>
</svg>
